<?xml version="1.0" encoding="utf-8"?>
<!-- Designed by Vexels.com - 2016 All Rights Reserved - https://vexels.com/terms-and-conditions/  -->

<svg version="1.0" id="Capa_1" xmlns="http://www.w3.org/2000/svg" xmlns:xlink="http://www.w3.org/1999/xlink" x="0px" y="0px"
	 width="1200px" height="1200px" viewBox="0 0 1200 1200" enable-background="new 0 0 1200 1200" xml:space="preserve">
<g>
	<path d="M600,10.075C274.716,10.075,10.075,274.714,10.075,600c0,325.284,264.641,589.925,589.925,589.925
		c325.286,0,589.925-264.641,589.925-589.925C1189.925,274.714,925.286,10.075,600,10.075z M1149.429,600
		c0,302.964-246.466,549.443-549.429,549.443c-302.961,0-549.443-246.479-549.443-549.443C50.557,297.039,297.039,50.571,600,50.571
		C902.964,50.571,1149.429,297.039,1149.429,600z"/>
	<g>
		<path d="M398.912,374.523c9.363-5.754,17.833-10.986,26.331-16.172c10.755-6.569,21.63-12.944,32.235-19.742
			c3.094-1.983,4.942-1.605,7.64,0.53c65.217,51.59,130.535,103.058,195.698,154.718c3.303,2.617,5.784,2.587,9.295,1.184
			c61.344-24.53,122.743-48.919,184.08-73.469c17.25-6.902,33.974-7.961,49.596,3.776c27.751,20.856,23.83,60.446-7.993,74.123
			c-29.46,12.661-59.606,23.73-89.491,35.398c-141.076,55.078-282.167,110.125-423.259,165.167
			c-4.493,1.754-9.489,5.354-13.444,4.469c-3.905-0.872-6.92-6.225-10.094-9.815c-20.253-22.906-40.443-45.867-60.656-68.808
			c-6.053-6.87-12.124-13.723-18.169-20.6c-0.989-1.125-1.877-2.338-3.033-3.789c17.6-7.244,34.775-14.402,52.059-21.288
			c1.585-0.632,4.052,0.034,5.781,0.819c16.652,7.574,33.186,15.4,49.883,22.872c2.212,0.992,5.472,1.265,7.676,0.41
			c46.478-18.033,92.873-36.274,139.279-54.487c1.234-0.484,2.397-1.145,4.573-2.193
			C490.783,489.775,445.051,432.404,398.912,374.523z"/>
		<path d="M861.979,818.907c0,14.759,0,29.05,0,43.78c-194.285,0-388.375,0-582.74,0c-0.095-1.75-0.245-3.262-0.245-4.772
			c-0.02-12.917-0.011-25.836-0.011-39.008C473.563,818.907,667.66,818.907,861.979,818.907z"/>
	</g>
</g>
</svg>
