<?xml version="1.0" encoding="utf-8"?>
<!-- Generator: Adobe Illustrator 26.5.0, SVG Export Plug-In . SVG Version: 6.00 Build 0)  -->
<svg version="1.1" id="Layer_1" xmlns="http://www.w3.org/2000/svg" xmlns:xlink="http://www.w3.org/1999/xlink" x="0px" y="0px"
	 viewBox="0 0 800 800" style="enable-background:new 0 0 800 800;" xml:space="preserve">
<style type="text/css">
	.st0{display:none;}
	.st1{fill:#FFFFFF;}
	.st2{font-family:'ErasITC-Demi';}
	.st3{font-size:87.243px;}
</style>
<rect class="st0" width="800" height="800"/>
<g>
	<path class="st1" d="M694.3,262.7c-4.1-26.1-11.2-51.3-22.8-75.2c-1.7-3.5-1.7-5.7,0.9-8.7c9.4-11.2,17.5-23.2,20.8-37.8
		c3.8-16.6-1.6-29.4-16.5-37.9c-19.7-11.3-41.1-13.8-63.2-11.2c-4.7,0.6-7.9-0.2-11.5-3.5C552.5,43,494.2,17.1,427.4,10
		c-3.9-0.4-7.7-1-11.6-1.5h-31.9c-11.2,1.5-22.6,2.4-33.7,4.7c-118.1,23.8-196.8,93-236.6,206.6c-6.7,19.2-10.8,38.9-11.9,59.2
		c-0.1,1.9-0.7,3.8-1.1,5.7v38.9c1.1,8.1,2.1,16.3,3.3,24.4c8.1,54.9,31.2,103,67,145.2c48.4,57.1,110.5,90,183.8,102.7
		c6.2,1.1,12.4,1.8,18.6,2.7h51.9c9.8-1.6,19.7-3,29.5-4.8C574,572.4,670.1,477.6,692.7,359.1c1.9-10.2,2.7-20.6,4-30.9
		c0.3-1.9,0.8-3.8,1.1-5.7v-34.2C696.7,279.7,695.6,271.2,694.3,262.7z M328,44.4c87.8-24.2,167.6-5.2,240.4,48.8
		c-7.8,7.5-10,7.6-17.5,2.3c-51.4-36.6-108.7-53.9-171.5-48c-100.1,9.4-170.9,62.2-217.1,150.2c-1,1.9-1.9,3.9-2.8,5.8
		c-4.4,9-4.4,9-16.4,6.6C181,127.4,239.7,68.7,328,44.4z M604.8,480c-45,52.4-102.9,82.4-171.4,91.3
		C299,588.7,168.4,500.6,134.3,369.8c-7.3-28.2-9.4-56.9-6.9-86c0.1-1.3,0.5-2.6,0.7-4.2c2.2,0.6,4,1.1,5.9,1.5
		c3.8,0.7,4.8,2.8,4.6,6.6c-1.1,28,0.8,55.8,8.1,83c2,7.6,4.5,15,6.7,22.2c1,0.1,1.5,0.3,1.7,0.2c11-9.6,23.5-4.3,35.4-3
		c17.9,2,35.8,4.6,54.8,7.2c-1.1-3.1-1.7-5.3-2.5-7.3c-9.3-22.7-18.4-45.5-28.1-68.1c-2.2-5-2-8.3,2.5-11.5c2.4-1.7,4.3-3.9,6.8-6.2
		c23,21.4,45.7,42.5,68.8,64c18.3-15.7,36.7-31.5,56.5-48.5c-14.8-4.8-28.4-9.7-42.2-13.6c-65.8-18.4-131.6-36.5-198.3-55
		c11.4-10.4,23.4-17.2,38.8-16c16.9,1.3,33.7,2.5,50.6,3.8c31.9,2.5,63.9,5.1,95.8,7.7c13.1,1.1,26.3,2.2,39.4,3.4
		c3.9,0.4,6.2-0.8,9-3.8c8.3-8.8,16.6-18,26.2-25.2c19.7-14.8,39.2-11,53.5,8.9c0.9,1.2,1.8,2.4,2.7,3.6
		c29.2-25.3,58.1-50.4,87.1-75.4c20.4-17.6,40.7-35.4,65.6-46.6c28.5-12.8,57.6-16.5,87.4-4.3c3.4,1.4,6.8,3.2,9.9,5.2
		c8.4,5.6,11.3,13.7,9.6,23.6c-2.6,14.7-10.8,26.4-20.1,37.5c-19.7,23.3-43.6,42-67.2,60.8c-25.4,20.2-50.7,40.4-76.1,60.6
		c-0.7,0.6-1.4,1.3-2.5,2.2c6.1,6.6,12.1,13,18.1,19.4c4.9-4.2,9.4-8.3,14.3-11.9c15.7-11.5,32.9-10.4,44.5,2.8
		c12.2,13.8,12,33.5-0.6,47.1c-3.8,4.1-8.4,7.6-12.9,11.7c11,11.5,21.8,22.8,32.5,34.2c-6.7,8.2-10.4,9.3-19.6,6
		c-33.1-11.8-66.2-23.6-99.3-35.2c-16.9-5.9-34.4-8.2-52.3-6.1c-3.5,0.4-7.4,1.6-10.2,3.7c-29.7,21.7-60.2,42.2-93.5,58.2
		c-1.9,0.9-3.8,2-6,3.2c4.5,4.1,8.9,8,13.5,12.2c-4.7,5-9.2,9.3-16.3,6.1c-17.5-7.9-34.6-6.3-52.1,0.6c-8.3,3.2-17.6,4.3-26.5,5.2
		c-13.6,1.3-19.3-7-14-19.7c1-2.3,2.3-4.5,3.9-7.6c-28.1-9.3-56.1-18.5-85.5-28.2c1.9,4.6,3.2,8.2,4.9,11.6
		c41.6,81.3,106.8,131.9,197.1,147.3C488.3,580,616.1,498.2,651,371.6c13.4-48.7,11.2-97.2-4.3-145.2c-3.1-9.5-3-9.5,6.3-15.2
		c0.8,1.9,1.8,3.8,2.4,5.7C688.6,314.3,671.6,402.3,604.8,480z"/>
	<path class="st1" d="M638.9,103.6c-0.4,0.8-0.7,1.7-1.1,2.5c2.4,1.4,4.6,3.8,7.1,4.1c6,0.6,12,0.2,18.1,0.2c0-0.7,0.1-1.4,0.1-2.1
		C655.1,106.6,647,105.1,638.9,103.6z M617.7,106.9c-7.7,1-10.9,5-11.7,12.9c10.9-3.1,21-5.9,31.4-8.8
		C632.3,100.6,624.3,106,617.7,106.9z M551.1,135.3c-7.7,5.6-9.5,19.9-2.2,33.4c1.6-2.9,3.8-5.1,3.7-7.3
		C552.5,152.5,551.6,143.7,551.1,135.3z M532.3,153.3c-0.3,3.5-0.6,6.9-0.9,10.4c0.9,0.1,1.8,0.2,2.7,0.3c0.4-3.5,0.7-6.9,1.1-10.4
		C534.2,153.5,533.2,153.4,532.3,153.3z M524.8,160.6c-3.6,4.4-3.8,6.9,0.5,12.1c0.5-4.8,0.9-8.3,1.3-11.8
		C526,160.8,525.4,160.7,524.8,160.6z M514.7,167.9c-0.4,3.4-0.7,6.8-1.1,10.2c1,0.1,1.9,0.2,2.9,0.3c0.4-3.4,0.9-6.8,1.3-10.1
		C516.8,168.1,515.7,168,514.7,167.9z M507,175.3c-2.4,3.1-3.5,6.5,1,10.5c0.4-3.4,0.8-6.8,1.2-10.2
		C508.5,175.5,507.7,175.4,507,175.3z M497.6,182.3c-0.4,3.6-0.8,7.2-1.2,10.8c1,0.1,2,0.2,2.9,0.3c0.4-3.6,0.9-7.2,1.3-10.8
		C499.6,182.5,498.6,182.4,497.6,182.3z M488.8,189.9c-0.3,3.4-0.7,6.9-1,10.3c1,0.1,1.9,0.2,2.9,0.3c0.4-3.4,0.7-6.9,1.1-10.3
		C490.7,190.1,489.7,190,488.8,189.9z M480.7,197.2c-1.7,3.4-3.8,6.7,1.3,10.5c0.4-3.4,0.7-6.9,1.1-10.3
		C482.3,197.4,481.5,197.3,480.7,197.2z M470.9,204.8c-0.3,3.5-0.7,6.9-1,10.4c0.9,0.1,1.8,0.2,2.8,0.3c0.4-3.4,0.8-6.9,1.3-10.3
		C472.9,205.1,471.9,205,470.9,204.8z M461.9,212.9c-0.4,3.4-0.8,6.8-1.2,10.3c1,0.1,2,0.2,3,0.3c0.3-3.4,0.6-6.9,0.9-10.3
		C463.7,213.1,462.8,213,461.9,212.9z M452.8,220.6c-0.4,3.5-0.9,7-1.3,10.5c1,0.1,2,0.2,3.1,0.4c0.4-3.5,0.9-6.9,1.3-10.4
		C454.9,220.9,453.8,220.7,452.8,220.6z M443.9,228.2c-0.4,3.4-0.9,6.8-1.3,10.2l3.3,0.2c0.3-3.4,0.5-6.8,0.8-10.1
		C445.7,228.3,444.8,228.2,443.9,228.2z M434.9,236.1c-0.3,3.1-0.5,6.3-0.8,9.4c0.9,0.1,1.8,0.2,2.8,0.2c0.3-3.1,0.6-6.2,1-9.4
		C436.8,236.2,435.8,236.1,434.9,236.1z M449.2,261.6c-5.1-0.5-9.8-0.7-14.4-1.5c-5.2-0.9-7.3,1.1-6.9,6.6c5,0.5,10,1,15,1.6
		C449.7,269,449.9,268.9,449.2,261.6z M401.2,220.5c-13.3-4-23.5,4.6-21.5,18.3c1.7,11.5,8.1,19.9,18,25.4
		c12.8,7.1,23.8,0.4,23.8-14.3C421.6,236.4,413,224.1,401.2,220.5z M427.5,274.3c-2.2-0.1-5.2,1.4-6.6,3.2
		c-11.8,14.5-26.9,22.7-45.4,24.5c-5.9,0.6-11.8,0-18.4-4.1c22.4,1.3,38.9-7.5,54.3-22.2c-19.6,0-31.5-9.8-40.6-24.6
		c2.3,4.9,4.7,9.7,7.2,14.9c-7.6,7-16.7,11-27.4,12.6c1.9,2.3,3.3,3.9,4.7,5.6c-12.7-6.6-13.2-18-12.7-30.2
		c-1.7,7.2-3.4,14.6-3.1,21.8c0.4,7.4,2.8,14.7,4.5,23.3c-3.1-2.7-6.2-4.3-7.8-6.9c-5.7-9.4-4-19.6-1.9-30
		c-57.9-5.9-115.3-11.8-172.7-17.6c53.2,11.5,106.1,23.7,158.1,39.8c-13.9-2.4-27.7-5.4-41.4-8.4c-43.7-9.8-87.3-19.6-131-29.4
		c-5.8-1.3-11.8-2-17.5,2.3c2.2,0.6,3.9,1.2,5.6,1.6c61.1,16.8,122.3,33.5,183.3,50.5c24.7,6.9,47.9,16.9,64.7,37.6
		c0.2,0.2,0.7,0.2,1.5,0.4c17.5-16.1,35.3-32.2,52.7-48.6c3.9-3.7,6.6-8.5,10.8-14.1C440.3,275.4,433.9,274.4,427.5,274.3z
		 M277,393.2c-3.8,6.5-2.4,12,0.1,17.4c0.6-0.1,1.1-0.1,1.7-0.2C278.2,404.9,277.6,399.4,277,393.2z M169,394.2
		c0.6,1.1,0.8,1.6,1,1.7c26.8,8.8,53.6,17.6,80.5,26.2c1,0.3,3.3-0.9,3.9-2c2.4-4.2,4.4-8.7,6.6-13.3
		C230.2,402.6,199.9,398.5,169,394.2z M315.3,437.2c7.4,2.1,13.4,3.8,20.4,5.9C327.4,433.3,326.2,432.9,315.3,437.2z M582.8,304.7
		c-5.4-2.4-11.2-2.9-16.1,1.3c-4.5,3.9-4.7,9.1-3.5,14.6c2,8.8,7.1,15.2,15,19.2c10.7,5.3,19.3-0.2,19.3-14.1
		C596.9,317.2,592.5,309.1,582.8,304.7z M673.5,124.4c-38.6,28.1-77.8,55.3-113.5,87.3c-36.6,32.8-74.8,63.7-112.4,95.5
		c-1.7,1.4-3.6,2.5-5.3,3.8c-0.4-0.5-0.7-0.9-1.1-1.4c41.3-43.5,88.6-80.5,131.6-122.6c-1,0.7-2.1,1.4-3.1,2.2
		c-30.6,25.9-61.8,51.2-91.7,77.9c-43.6,39.1-85.8,79.8-133.9,113.7c-31.3,22-60.8,46.8-95.4,63.9c-0.3,0.1-0.4,0.6-1,1.8
		c5.3-0.7,10.1-1.1,14.7-2.1c35.1-8,68.5-20.5,99.3-39.1c21.7-13.1,42.5-27.7,63.5-41.8c5.9-4,12-6,19.1-6.6
		c23.5-1.9,45.6,3.9,67.4,11.9c27.4,10,54.9,19.9,82.4,29.8c0.2-0.3,0.4-0.6,0.6-1c-10.7-7-21.3-13.9-32-20.8c0.3-0.5,0.6-1,0.9-1.5
		c11.5,7.2,23,14.4,34.5,21.6c-6.9-7.6-14.4-14.8-21.5-22.2c-3-3.2-5.7-4.2-10.2-3c-9.3,2.6-17.6,1.5-22.8-2.1
		c25.7-4.4,37.3-9.5,44-20c-14.1,0.2-23.4-7.2-30.9-18.1c1.5,3.1,3,6.3,5.1,10.8c-8.3,4-16.4,7.8-24.4,11.6c0.8,1,2.1,2.5,3.4,4.1
		c-11.3-5.6-11.9-15.6-11.3-26.3c-4.1,12.4-3.9,24.6,1.5,37c-2.9-1.3-5.9-2.6-7.1-5c-6.8-13.8-2.8-26.6,5.1-39.1
		c-7.6-8-15-15.8-22.7-24c-7.8,5.8-15.2,11.3-22.6,16.8c45.3-47.2,96.3-88.1,144.6-131.8c0.6,0.6,1.2,1.3,1.7,1.9
		c-21.6,20.1-43.1,40.1-64.7,60.2c6-4.2,11.9-8.7,17.5-13.5c23-19.9,46.4-39.5,68.8-60.1c10.7-9.8,19.4-21.8,24-36
		c1.4-4.5,1.2-9.6,1.8-15.8C674.9,123.6,674.2,123.9,673.5,124.4z M306.5,417.5c28.8-21.4,51.7-50.9,86.6-63.9
		C366.4,377.9,338.1,400,306.5,417.5z"/>
	<path class="st1" d="M673.5,124.4c-38.6,28.1-77.8,55.3-113.5,87.3c-36.6,32.8-74.8,63.7-112.4,95.5c-1.7,1.4-3.6,2.5-5.3,3.8
		c-0.4-0.5-0.7-0.9-1.1-1.4c41.3-43.5,88.6-80.5,131.6-122.6c-1,0.7-2.1,1.4-3.1,2.2c-30.6,25.9-61.8,51.2-91.7,77.9
		c-43.6,39.1-85.8,79.8-133.9,113.7c-31.3,22-60.8,46.8-95.4,63.9c-0.3,0.1-0.4,0.6-1,1.8c5.3-0.7,10.1-1.1,14.7-2.1
		c35.1-8,68.5-20.5,99.3-39.1c21.7-13.1,42.5-27.7,63.5-41.8c5.9-4,12-6,19.1-6.6c23.5-1.9,45.6,3.9,67.4,11.9
		c27.4,10,54.9,19.9,82.4,29.8c0.2-0.3,0.4-0.6,0.6-1c-10.7-7-21.3-13.9-32-20.8c0.3-0.5,0.6-1,0.9-1.5c11.5,7.2,23,14.4,34.5,21.6
		c-6.9-7.6-14.4-14.8-21.5-22.2c-3-3.2-5.7-4.2-10.2-3c-9.3,2.6-17.6,1.5-22.8-2.1c25.7-4.4,37.3-9.5,44-20
		c-14.1,0.2-23.4-7.2-30.9-18.1c1.5,3.1,3,6.3,5.1,10.8c-8.3,4-16.4,7.8-24.4,11.6c0.8,1,2.1,2.5,3.4,4.1
		c-11.3-5.6-11.9-15.6-11.3-26.3c-4.1,12.4-3.9,24.6,1.5,37c-2.9-1.3-5.9-2.6-7.1-5c-6.8-13.8-2.8-26.6,5.1-39.1
		c-7.6-8-15-15.8-22.7-24c-7.8,5.8-15.2,11.3-22.6,16.8c45.3-47.2,96.3-88.1,144.6-131.8c0.6,0.6,1.2,1.3,1.7,1.9
		c-21.6,20.1-43.1,40.1-64.7,60.2c6-4.2,11.9-8.7,17.5-13.5c23-19.9,46.4-39.5,68.8-60.1c10.7-9.8,19.4-21.8,24-36
		c1.4-4.5,1.2-9.6,1.8-15.8C674.9,123.6,674.2,123.9,673.5,124.4z M306.5,417.5c28.8-21.4,51.7-50.9,86.6-63.9
		C366.4,377.9,338.1,400,306.5,417.5z"/>
	<path class="st1" d="M393.1,353.6c-26.7,24.3-55,46.4-86.6,63.9C335.3,396.1,358.1,366.6,393.1,353.6z"/>
	<path class="st1" d="M448.4,276.3c-4.2,5.6-6.9,10.4-10.8,14.1c-17.5,16.4-35.2,32.5-52.7,48.6c-0.7-0.2-1.3-0.2-1.5-0.4
		c-16.8-20.7-40-30.7-64.7-37.6c-61.1-17.1-122.2-33.7-183.3-50.5c-1.7-0.5-3.4-1-5.6-1.6c5.8-4.3,11.7-3.6,17.5-2.3
		c43.7,9.7,87.4,19.6,131,29.4c13.7,3.1,27.5,6,41.4,8.4c-52-16.1-105-28.3-158.1-39.8c57.4,5.8,114.8,11.7,172.7,17.6
		c-2.1,10.4-3.8,20.6,1.9,30c1.6,2.6,4.7,4.3,7.8,6.9c-1.8-8.6-4.2-15.9-4.5-23.3c-0.4-7.2,1.3-14.6,3.1-21.8
		c-0.4,12.2,0.1,23.6,12.7,30.2c-1.4-1.6-2.7-3.3-4.7-5.6c10.7-1.6,19.8-5.6,27.4-12.6c-2.5-5.2-4.8-10.1-7.2-14.9
		c9.1,14.8,20.9,24.6,40.6,24.6c-15.4,14.8-31.9,23.6-54.3,22.2c6.6,4.2,12.6,4.7,18.4,4.1c18.5-1.8,33.6-9.9,45.4-24.5
		c1.4-1.8,4.4-3.2,6.6-3.2C433.9,274.4,440.3,275.4,448.4,276.3z"/>
	<path class="st1" d="M421.6,249.8c0,14.7-11,21.5-23.8,14.3c-9.9-5.5-16.3-13.9-18-25.4c-2-13.7,8.2-22.3,21.5-18.3
		C413,224.1,421.6,236.4,421.6,249.8z"/>
	<path class="st1" d="M597.5,325.8c0,13.9-8.5,19.4-19.3,14.1c-8-4-13.1-10.4-15-19.2c-1.2-5.5-1-10.8,3.5-14.6
		c4.9-4.2,10.7-3.7,16.1-1.3C592.5,309.1,596.9,317.2,597.5,325.8z"/>
	<path class="st1" d="M261,406.8c-2.2,4.6-4.2,9.1-6.6,13.3c-0.6,1.1-2.9,2.3-3.9,2c-26.9-8.6-53.7-17.4-80.5-26.2
		c-0.3-0.1-0.4-0.6-1-1.7C199.9,398.5,230.2,402.6,261,406.8z"/>
	<path class="st1" d="M637.4,111c-10.3,2.9-20.5,5.8-31.4,8.8c0.8-7.9,4-11.9,11.7-12.9C624.3,106,632.3,100.6,637.4,111z"/>
	<path class="st1" d="M552.6,161.4c0,2.2-2.2,4.4-3.7,7.3c-7.3-13.5-5.5-27.8,2.2-33.4C551.6,143.7,552.5,152.5,552.6,161.4z"/>
	<path class="st1" d="M443,268.3c-5-0.5-10-1-15-1.6c-0.4-5.5,1.7-7.5,6.9-6.6c4.6,0.8,9.3,1,14.4,1.5
		C449.9,268.9,449.7,269,443,268.3z"/>
	<path class="st1" d="M663.1,108.1c0,0.7-0.1,1.4-0.1,2.1c-6,0-12.1,0.4-18.1-0.2c-2.5-0.3-4.7-2.7-7.1-4.1c0.4-0.8,0.7-1.6,1.1-2.5
		C647,105.1,655.1,106.6,663.1,108.1z"/>
	<path class="st1" d="M335.7,443.1c-7-2-13-3.7-20.4-5.9C326.2,432.9,327.4,433.3,335.7,443.1z"/>
	<path class="st1" d="M278.7,410.4c-0.6,0.1-1.1,0.1-1.7,0.2c-2.5-5.5-3.9-11-0.1-17.4C277.6,399.4,278.2,404.9,278.7,410.4z"/>
	<path class="st1" d="M526.6,160.9c-0.4,3.5-0.8,7-1.3,11.8c-4.2-5.3-4.1-7.8-0.5-12.1C525.4,160.7,526,160.8,526.6,160.9z"/>
	<path class="st1" d="M483.1,197.4c-0.3,3.4-0.7,6.9-1.1,10.3c-5.1-3.8-3-7.2-1.3-10.5C481.5,197.3,482.3,197.4,483.1,197.4z"/>
	<path class="st1" d="M455.9,221c-0.4,3.5-0.9,6.9-1.3,10.4c-1-0.1-2-0.3-3.1-0.4c0.4-3.5,0.9-7,1.3-10.5
		C453.8,220.7,454.9,220.9,455.9,221z"/>
	<path class="st1" d="M509.2,175.6c-0.4,3.4-0.8,6.8-1.2,10.2c-4.4-4.1-3.3-7.4-1-10.5C507.7,175.4,508.5,175.5,509.2,175.6z"/>
	<path class="st1" d="M500.7,182.6c-0.4,3.6-0.9,7.2-1.3,10.8c-1-0.1-1.9-0.2-2.9-0.3c0.4-3.6,0.8-7.2,1.2-10.8
		C498.6,182.4,499.6,182.5,500.7,182.6z"/>
	<path class="st1" d="M464.6,213.2c-0.3,3.4-0.6,6.9-0.9,10.3c-1-0.1-2-0.2-3-0.3c0.4-3.4,0.8-6.8,1.2-10.3
		C462.8,213,463.7,213.1,464.6,213.2z"/>
	<path class="st1" d="M517.8,168.3c-0.4,3.4-0.9,6.8-1.3,10.1c-1-0.1-1.9-0.2-2.9-0.3c0.3-3.4,0.7-6.8,1.1-10.2
		C515.7,168,516.8,168.1,517.8,168.3z"/>
	<path class="st1" d="M491.7,190.2c-0.4,3.4-0.7,6.9-1.1,10.3c-1-0.1-1.9-0.2-2.9-0.3c0.3-3.4,0.7-6.9,1-10.3
		C489.7,190,490.7,190.1,491.7,190.2z"/>
	<path class="st1" d="M437.8,236.3c-0.3,3.1-0.6,6.2-1,9.4c-0.9-0.1-1.8-0.2-2.8-0.2c0.3-3.1,0.5-6.2,0.8-9.4
		C435.8,236.1,436.8,236.2,437.8,236.3z"/>
	<path class="st1" d="M535.1,153.6c-0.4,3.5-0.7,6.9-1.1,10.4c-0.9-0.1-1.8-0.2-2.7-0.3c0.3-3.5,0.6-6.9,0.9-10.4
		C533.2,153.4,534.2,153.5,535.1,153.6z"/>
	<path class="st1" d="M473.9,205.2c-0.4,3.4-0.8,6.9-1.3,10.3c-0.9-0.1-1.8-0.2-2.8-0.3c0.3-3.5,0.7-6.9,1-10.4
		C471.9,205,472.9,205.1,473.9,205.2z"/>
	<path class="st1" d="M446.6,228.4c-0.3,3.4-0.5,6.8-0.8,10.1l-3.3-0.2c0.4-3.4,0.9-6.8,1.3-10.2
		C444.8,228.2,445.7,228.3,446.6,228.4z"/>
</g>
<text transform="matrix(1 0 0 1 162.064 677.0674)"><tspan x="0" y="0" class="st1 st2 st3">Aeropuerto</tspan><tspan x="16.6" y="74.8" class="st1 st2 st3">omarbenja</tspan></text>
</svg>
