<?xml version="1.0" encoding="utf-8"?>
<!-- Generator: Adobe Illustrator 26.5.0, SVG Export Plug-In . SVG Version: 6.00 Build 0)  -->
<svg version="1.1" id="Layer_1" xmlns="http://www.w3.org/2000/svg" xmlns:xlink="http://www.w3.org/1999/xlink" x="0px" y="0px"
	 viewBox="0 0 800 800" style="enable-background:new 0 0 800 800;" xml:space="preserve">
<style type="text/css">
	.st0{fill:#1576C6;}
</style>
<path class="st0" d="M400,66.7C219.3,66.7,66.7,219.3,66.7,400S219.3,733.3,400,733.3S733.3,580.7,733.3,400S580.7,66.7,400,66.7z
	 M400,233.3c57.6,0,100,42.4,100,100s-42.4,100-100,100c-57.5,0-100-42.4-100-100S342.5,233.3,400,233.3z M229.8,559.1
	c29.9-44,79.8-73.3,136.9-73.3h66.7c57.1,0,107,29.3,136.9,73.3c-42.6,45.6-103,74.3-170.2,74.3S272.4,604.7,229.8,559.1z"/>
</svg>
