<?xml version="1.0" encoding="utf-8"?>
<!-- Generator: Adobe Illustrator 26.5.0, SVG Export Plug-In . SVG Version: 6.00 Build 0)  -->
<svg version="1.1" id="Layer_1" xmlns="http://www.w3.org/2000/svg" xmlns:xlink="http://www.w3.org/1999/xlink" x="0px" y="0px"
	 viewBox="0 0 800 800" style="enable-background:new 0 0 800 800;" xml:space="preserve">
<style type="text/css">
	.st0{fill:#FFFFFF;}
</style>
<path class="st0" d="M111.9,675.6v43.1V730v4.4c0,18.1,15,33.1,33.1,33.1h240.6c18.1,0,33.1-15,33.1-33.1v-7.5v-8.8v-42.5H111.9z"/>
<path class="st0" d="M68.8,368.8h-5H53.1c-18.1,0-33.1,15-33.1,33.1v240.6c0,18.1,15,33.1,33.1,33.1h13.1l0,0h45.6V368.8H68.8z"/>
<polygon class="st0" points="460,701.9 460,767.5 756.9,767.5 756.9,675 460,675 "/>
<polygon class="st0" points="659.4,191.9 659.4,133.8 445.6,133.8 485,191.9 "/>
<path class="st0" d="M485.6,215L450,261.2h48.8c0,44.4,35.6,80,80,80c44.4,0,80-35.6,80-80V215L485.6,215L485.6,215z"/>
<path class="st0" d="M756.9,634.4V465v-32.5v-10.6c0-29.4-23.8-53.1-53.1-53.1h-6.9L583.8,521.9l-83.1,112.5H756.9z"/>
<path class="st0" d="M460,471.9v148.8l186.2-251.9H513.1c-0.6,0-1.2,0-1.9,0l0,0h-30h-31.9c-17.5,0-42.5,13.8-55,30.6
	c-12.5,16.9-22.5,30.6-22.5,30.6L263.8,575.6c-11.9,15.6-8.1,37.5,7.5,49.4l3.8,2.5c15.6,11.2,37.5,8.1,49.4-7.5L460,437.5V471.9z"
	/>
</svg>
