<?xml version="1.0" encoding="utf-8"?>
<!-- Generator: Adobe Illustrator 26.5.0, SVG Export Plug-In . SVG Version: 6.00 Build 0)  -->
<svg version="1.1" id="Capa_1" xmlns="http://www.w3.org/2000/svg" xmlns:xlink="http://www.w3.org/1999/xlink" x="0px" y="0px"
	 viewBox="0 0 800 800" style="enable-background:new 0 0 800 800;" xml:space="preserve">
<style type="text/css">
	.st0{fill:#FFFFFF;}
</style>
<g>
	<g>
		<path class="st0" d="M400,0C179.4,0,0,179.4,0,400s179.4,400,400,400s400-179.4,400-400C800,179.4,620.6,0,400,0z M400,735.5
			C215,735.5,64.5,585,64.5,400C64.5,215,215,64.5,400,64.5S735.5,215,735.5,400S585,735.5,400,735.5z"/>
		<path class="st0" d="M527.5,272.4L340.8,459.2l-68.3-68.3c-12.6-12.6-33-12.6-45.6,0c-12.6,12.6-12.6,33,0,45.6l91.1,91.1
			c6.3,6.3,14.5,9.5,22.8,9.5c8.2,0,16.5-3.1,22.8-9.5L573.1,318c12.6-12.6,12.6-33,0-45.6C560.5,259.9,540.1,259.9,527.5,272.4z"/>
	</g>
</g>
</svg>
