<?xml version="1.0" encoding="utf-8"?>
<!-- Generator: Adobe Illustrator 26.5.0, SVG Export Plug-In . SVG Version: 6.00 Build 0)  -->
<svg version="1.1" id="dashboard_layout_screen" xmlns="http://www.w3.org/2000/svg" xmlns:xlink="http://www.w3.org/1999/xlink"
	 x="0px" y="0px" viewBox="0 0 800 800" style="enable-background:new 0 0 800 800;" xml:space="preserve">
<style type="text/css">
	.st0{fill:none;}
	.st1{fill:none;stroke:#FFFFFF;stroke-width:50;stroke-miterlimit:333.3333;}
</style>
<rect id="Mask" class="st0" width="800" height="800"/>
<g id="Group_2" transform="translate(4 4)">
	<path id="Rectangle_15" class="st1" d="M162.7,129.3H296c18.4,0,33.3,14.9,33.3,33.3V396c0,18.4-14.9,33.3-33.3,33.3H162.7
		c-18.4,0-33.3-14.9-33.3-33.3V162.7C129.3,144.3,144.3,129.3,162.7,129.3z"/>
	<path id="Rectangle_15-2" class="st1" d="M162.7,529.3h466.7c18.4,0,33.3,14.9,33.3,33.3v66.7c0,18.4-14.9,33.3-33.3,33.3H162.7
		c-18.4,0-33.3-14.9-33.3-33.3v-66.7C129.3,544.3,144.3,529.3,162.7,529.3z"/>
	<path id="Rectangle_15-3" class="st1" d="M462.7,129.3h166.7c18.4,0,33.3,14.9,33.3,33.3V396c0,18.4-14.9,33.3-33.3,33.3H462.7
		c-18.4,0-33.3-14.9-33.3-33.3V162.7C429.3,144.3,444.3,129.3,462.7,129.3z"/>
</g>
</svg>
