<?xml version="1.0" encoding="utf-8"?>
<!-- Generator: Adobe Illustrator 26.5.0, SVG Export Plug-In . SVG Version: 6.00 Build 0)  -->
<svg version="1.1" id="Layer_1" xmlns="http://www.w3.org/2000/svg" xmlns:xlink="http://www.w3.org/1999/xlink" x="0px" y="0px"
	 viewBox="0 0 925 1280" style="enable-background:new 0 0 925 1280;" xml:space="preserve">
<style type="text/css">
	.st0{fill:#FFFFFF;}
</style>
<g transform="translate(0.000000,1280.000000) scale(0.100000,-0.100000)">
	<path class="st0" d="M411,12779c-194-56-323-181-383-373c-33-104-34-122-12-208c24-96,67-177,131-249c32-36,694-711,1470-1499
		l1413-1434l2-4270l3-4271l26-77c15-43,41-100,59-128c43-67,144-159,213-194c63-31,231-76,286-76s221,44,282,75
		c120,60,219,163,268,278c53,124,51-2,51,2646c0,2224,1,2449,16,2455c23,9,177,7,191-2c10-6,13-534,15-2487l3-2480l28-78
		c15-43,42-102,61-130c44-69,137-154,214-195c68-36,233-82,297-82c63,0,229,46,297,82c80,41,184,145,225,223c68,131,67,108,70,862
		l4,683h1187c653,0,1193,4,1200,8c10,7,12,372,10,1793l-3,1784l-332,3l-333,2v238c0,268-10,358-44,417c-56,95-120,116-381,124
		l-200,6l-5,1485c-5,1385-7,1490-24,1560c-66,278-186,491-385,691c-204,205-404,313-670,363c-73,14-237,16-1312,16H3121l-24,23
		c-14,12-526,535-1140,1163c-694,711-1136,1154-1170,1177c-62,42-85,51-179,78C527,12804,495,12804,411,12779z M5865,7070V5445h-110
		h-110l-3,1615c-1,888,0,1621,3,1628c3,9,32,12,112,10l108-3V7070z"/>
	<path class="st0" d="M4270,12729c-448-47-820-382-916-827c-23-104-23-330,0-434c32-147,104-304,190-417c68-88,204-211,295-265
		c167-100,341-148,541-148c341,0,633,146,840,419c63,83,142,243,169,342c115,419-33,860-376,1124C4808,12680,4534,12756,4270,12729z
		"/>
	<path class="st0" d="M8307,5433c-4-3-7-809-7-1789V1860l26-6c14-4,137-4,272-2c211,5,256,9,309,26c87,28,140,61,201,126
		c60,63,96,134,123,243c18,72,19,137,19,1399c0,1302,0,1326-20,1402c-30,110-66,178-135,248c-120,123-199,144-541,144
		C8422,5440,8310,5437,8307,5433z"/>
</g>
</svg>
