<?xml version="1.0" encoding="utf-8"?>
<!-- Generator: Adobe Illustrator 26.5.0, SVG Export Plug-In . SVG Version: 6.00 Build 0)  -->
<svg version="1.1" id="Capa_1" xmlns="http://www.w3.org/2000/svg" xmlns:xlink="http://www.w3.org/1999/xlink" x="0px" y="0px"
	 viewBox="0 0 800 800" style="enable-background:new 0 0 800 800;" xml:space="preserve">
<style type="text/css">
	.st0{fill:#FFFFFF;}
</style>
<g>
	<path class="st0" d="M615.6,579.7h-11.3v-211c0-112.7-91.7-204.4-204.4-204.4S195.6,256,195.6,368.7v211h-11.3
		c-46,0-83.4,37.4-83.4,83.4v109.5c0,15.1,12.3,27.4,27.4,27.4h543.2c15.1,0,27.4-12.3,27.4-27.4V663.1
		C699,617.1,661.6,579.7,615.6,579.7z M250.5,368.7c0-82.4,67.1-149.5,149.5-149.5s149.5,67.1,149.5,149.5v211h-299V368.7z
		 M644.2,745.1H155.8v-82.1c0-15.7,12.8-28.5,28.5-28.5h431.3c15.7,0,28.5,12.8,28.5,28.5L644.2,745.1L644.2,745.1z"/>
	<path class="st0" d="M400,109.7c15.1,0,27.4-12.3,27.4-27.4V27.4C427.4,12.3,415.1,0,400,0c-15.1,0-27.4,12.3-27.4,27.4v54.9
		C372.6,97.4,384.9,109.7,400,109.7z"/>
	<path class="st0" d="M155.7,194.9c5.4,5.4,12.4,8,19.4,8s14-2.7,19.4-8c10.7-10.7,10.7-28.1,0-38.8l-38.8-38.8
		c-10.7-10.7-28.1-10.7-38.8,0c-10.7,10.7-10.7,28.1,0,38.8L155.7,194.9z"/>
	<path class="st0" d="M624.9,202.9c7,0,14-2.7,19.4-8l38.8-38.8c10.7-10.7,10.7-28.1,0-38.8c-10.7-10.7-28.1-10.7-38.8,0l-38.8,38.8
		c-10.7,10.7-10.7,28.1,0,38.8C610.9,200.2,617.9,202.9,624.9,202.9z"/>
	<path class="st0" d="M400,249.1c-65.9,0-119.5,53.6-119.5,119.5c0,15.1,12.3,27.4,27.4,27.4s27.4-12.3,27.4-27.4
		c0-35.7,29-64.7,64.7-64.7c15.1,0,27.4-12.3,27.4-27.4S415.1,249.1,400,249.1z"/>
</g>
</svg>
