<?xml version="1.0" encoding="utf-8"?>
<!-- Generator: Adobe Illustrator 26.5.0, SVG Export Plug-In . SVG Version: 6.00 Build 0)  -->
<svg version="1.1" id="Layer_1" xmlns="http://www.w3.org/2000/svg" xmlns:xlink="http://www.w3.org/1999/xlink" x="0px" y="0px"
	 viewBox="0 0 800 800" style="enable-background:new 0 0 800 800;" xml:space="preserve">
<style type="text/css">
	.st0{fill:#FFFFFF;}
</style>
<path class="st0" d="M675,222.6v306.4c-0.1,25.7-20.9,46.6-46.7,46.7H452.6l-42.9,68.8c-2.5,5.8-9.2,8.6-15.1,6.1
	c-2.8-1.2-5-3.4-6.1-6.1l-42.9-68.8H171.7c-25.7-0.1-46.6-20.9-46.7-46.7V222.6c0.1-25.7,20.9-46.6,46.7-46.7h456.8
	C654.1,176,674.9,196.8,675,222.6L675,222.6z M429.7,477.5c0-16.4-13.3-29.7-29.7-29.8c-16.4,0-29.7,13.3-29.8,29.7
	c0,16.4,13.3,29.7,29.7,29.8c0,0,0,0,0,0C416.4,507.2,429.7,493.9,429.7,477.5z M376.7,400.4c0,12.9,10.4,23.3,23.3,23.3
	c12.9,0,23.3-10.4,23.3-23.3c0,0,0,0,0,0V264.2c0-12.9-10.4-23.3-23.3-23.3c-12.9,0-23.3,10.4-23.3,23.3c0,0,0,0,0,0V400.4z"/>
</svg>
