<?xml version="1.0" encoding="utf-8"?>
<!-- Generator: Adobe Illustrator 26.5.0, SVG Export Plug-In . SVG Version: 6.00 Build 0)  -->
<svg version="1.1" id="_x32_" xmlns="http://www.w3.org/2000/svg" xmlns:xlink="http://www.w3.org/1999/xlink" x="0px" y="0px"
	 viewBox="0 0 800 800" style="enable-background:new 0 0 800 800;" xml:space="preserve">
<style type="text/css">
	.st0{fill:#FFFFFF;}
</style>
<g>
	<path class="st0" d="M671.6,639.7c-18.3-27.5-46.2-42.6-72.4-52.5c-13.1-4.9-26-8.6-37.3-11.7c-11.3-3.1-21.1-5.7-27.7-8.1
		c-11.5-4.3-23.7-9.8-32.2-15.8c-4.3-3-7.5-6-9.4-8.6c-1.9-2.7-2.4-4.5-2.5-6.1c0-11.1,0-25,0-43.2c14.8-16.4,36-41.9,44.7-82.2
		c3-1.4,6.1-2.9,9-4.9c7.2-5,13.3-12.2,18.5-22.1c5.2-9.9,9.9-22.5,14.8-39.8c2.5-8.8,3.7-16.4,3.7-23.1c0-7.8-1.6-14.6-4.5-20.1
		c-3.9-7.3-9.8-11.7-15.2-14.1l12-17.9v-19.9c1.1-1.6,1.9-3,1.7-4.1v-43.1l30.6-61.2c7.8-15.5,1.8-34.4-13.5-42.6L415.1,3.8
		c-9.5-5.1-20.8-5.1-30.3,0L208.1,98.5c-15.3,8.2-21.3,27.1-13.5,42.6l30.6,61.3v43c-0.2,1.2,0.4,2.6,1.7,4.2v19.8l12,17.9
		c-1.2,0.6-2.5,1.2-3.9,2c-4.2,2.6-8.4,6.6-11.3,12.1c-2.9,5.5-4.6,12.3-4.5,20.1c0,6.8,1.2,14.4,3.7,23.1
		c6.6,23,12.6,37.9,20.3,48.8c3.9,5.4,8.3,9.7,13,13.1c2.9,2,5.9,3.6,9,4.9c8.7,40.4,29.9,65.8,44.7,82.2c0,18.3,0,32.1,0,43.2
		c0,1.4-0.6,3.3-2.7,6.1c-3.1,4.2-9.5,9.2-17.2,13.5c-7.6,4.3-16.4,8.1-24,10.8c-9,3.2-23.5,6.5-39.8,11.2
		c-24.4,7.1-53.3,17.2-76.8,37.4c-11.7,10.1-22,22.7-29.3,38.4c-7.2,15.7-11.4,34.4-11.4,56.2c0,5.1,0.2,10.3,0.7,15.7
		c0.3,3.8,1.8,6.9,3.5,9.4c3.2,4.8,7.5,8.3,12.9,11.9c9.4,6.2,22.4,12.3,39.1,18.3C214.9,783.7,297.6,800,400,800
		c83.2,0,153.5-10.8,203.6-24.4c25.1-6.8,45.1-14.2,59.6-21.7c7.3-3.7,13.1-7.5,17.8-11.5c2.3-2.1,4.4-4.2,6.1-6.8
		c1.7-2.5,3.1-5.6,3.5-9.4c0.4-5.4,0.7-10.7,0.7-15.7C691.3,681.4,683.8,658,671.6,639.7z M362.4,214.9c0-20.8,16.8-37.6,37.6-37.6
		c20.8,0,37.6,16.8,37.6,37.6v3.6c0,20.8-16.8,37.6-37.6,37.6c-20.8,0-37.6-16.8-37.6-37.6V214.9z M369.5,719.7l-85.6-135.2
		c7.8-3.3,15.8-7.4,23.2-12.2l49,70.5l23.6-44.5L369.5,719.7z M354.9,623.2l-39.5-56.8c3.6-3,7-6.1,9.9-9.8c4-5.2,7-11.7,7.2-19.1
		l55.3,23.9L354.9,623.2z M332.5,526.4c0-10.1,0-22.1,0-37.1v-4.3l-2.9-3.2c-15.4-17.2-36.3-40-43.5-80.5l-1.1-6.5l-6.2-2.2
		c-3.9-1.4-6.9-2.8-9.6-4.7c-3.9-2.7-7.4-6.4-11.5-14.1c-4-7.6-8.3-18.9-13-35.4c-2.1-7.2-2.8-12.8-2.8-16.9c0-4.8,0.9-7.6,1.9-9.4
		c1.4-2.6,3.2-3.7,5.4-4.6c1-0.4,2-0.6,2.9-0.7l23.2,34.6l9.9-58.3l1.1-3.6c30.3,9.6,69.8,17.3,113.7,17.3
		c43.8,0,83.4-7.7,113.7-17.3l1.1,3.6l9.9,58.3l23.2-34.6c1.5,0.2,3.4,0.7,4.9,1.7c1.3,0.8,2.3,1.8,3.3,3.6c0.9,1.8,1.9,4.6,1.9,9.4
		c0,4.2-0.7,9.8-2.8,16.9c-6.2,22-11.8,34.7-17,41.8c-2.6,3.6-4.9,5.8-7.5,7.6c-2.6,1.8-5.6,3.3-9.6,4.7l-6.2,2.2l-1.1,6.5
		c-7.2,40.5-28.1,63.3-43.5,80.5l-2.9,3.2v4.3c0,15,0,27,0,37.1L400,555.5L332.5,526.4z M467.6,537.5c0.2,7.1,2.9,13.6,6.8,18.8
		c2.9,3.9,6.3,7.2,10.1,10.3l-39.4,56.6l-32.8-61.8L467.6,537.5z M430.5,719.8l-10.2-121.3l23.6,44.4l48.9-70.3c1.6,1,3.3,2.1,5,3
		c5.9,3.4,12.2,6.2,18.4,8.8L430.5,719.8z"/>
</g>
</svg>
